# xmcd
#
# Track frame offsets: 
#        150
#        11107
#        26087
#        41602
#        58740
#        70475
#        84445
#        95770
#        107387
#        120227
#        135600
#        149205
#
# Disc length: 2169 seconds
#
# Revision: 2
# Processed by: cddbd v1.5.2PL0 Copyright (c) Steve Scherf et al.
# Submitted via: ExactAudioCopy v0.95b4
#
DISCID=aa08770c
DTITLE=Various Artist - Big Bad Country
DYEAR=1995
DGENRE=
TTITLE0=George Jones - Tender Years
TTITLE1=Jeannie C. Riley - Harper Valley PTA
TTITLE2=Conway Twitty - Touch The Hand
TTITLE3=Ray Price - For The Good Times
TTITLE4=Henson Cargill - Skip A Rope
TTITLE5=Barbara Fairchild - Teddy Bear Song
TTITLE6=Ernie Ashworth - Talk Back Trembling Lips
TTITLE7=Freddy Fender - Before The Next Teardrop Falls
TTITLE8=Claude King - Wolverton Mountain
TTITLE9=Melba Montgomery - No Charge
TTITLE10=Jimmy Dean - Big Bad John
TTITLE11=Stonewall Jackson - BJ The DJ
EXTD=
EXTT0=
EXTT1=
EXTT2=
EXTT3=
EXTT4=
EXTT5=
EXTT6=
EXTT7=
EXTT8=
EXTT9=
EXTT10=
EXTT11=
PLAYORDER=
